<svg width="220" height="220" viewBox="0 0 220 220" fill="none" xmlns="http://www.w3.org/2000/svg">
  <rect width="220" height="220" rx="44" fill="#FFF8E7"/>
  <circle cx="110" cy="110" r="76" fill="#FFE082"/>
  <ellipse cx="110" cy="126" rx="54" ry="48" fill="#FFD54F"/>
  <path d="M77 96C77 80 89 68 104 68H116C131 68 143 80 143 96V101H77V96Z" fill="#FBC02D"/>
  <circle cx="88" cy="104" r="10" fill="white"/>
  <circle cx="132" cy="104" r="10" fill="white"/>
  <circle cx="90" cy="106" r="4" fill="#263238"/>
  <circle cx="130" cy="106" r="4" fill="#263238"/>
  <path d="M110 111L126 121H94L110 111Z" fill="#FB8C00"/>
  <path d="M95 137C99 143 104 146 110 146C116 146 121 143 125 137" stroke="#8D6E63" stroke-width="5" stroke-linecap="round"/>
  <circle cx="73" cy="129" r="12" fill="#FFD54F"/>
  <circle cx="147" cy="129" r="12" fill="#FFD54F"/>
  <path d="M58 52C71 39 87 34 106 35" stroke="#66BB6A" stroke-width="8" stroke-linecap="round"/>
  <path d="M104 35C111 48 114 60 112 73" stroke="#66BB6A" stroke-width="8" stroke-linecap="round"/>
  <path d="M150 60L166 76" stroke="#546E7A" stroke-width="8" stroke-linecap="round"/>
  <circle cx="174" cy="84" r="22" fill="#E3F2FD" stroke="#546E7A" stroke-width="8"/>
  <path d="M168 84H180" stroke="#546E7A" stroke-width="6" stroke-linecap="round"/>
  <path d="M174 78V90" stroke="#546E7A" stroke-width="6" stroke-linecap="round"/>
  <path d="M73 169C86 176 98 179 110 179C122 179 134 176 147 169" stroke="#FFFFFF" stroke-width="10" stroke-linecap="round" opacity="0.7"/>
</svg>
